<svg width="137" height="48" viewBox="0 0 137 48" fill="none" xmlns="http://www.w3.org/2000/svg">
<path d="M47.2999 22.1001C42.8999 22.1001 39.2999 18.5001 39.2999 14.1001C39.2999 9.7001 42.8999 6.1001 47.2999 6.1001C51.6999 6.1001 55.2999 9.7001 55.2999 14.1001C55.2999 15.2001 54.3999 16.1001 53.2999 16.1001H43.7999C44.4999 17.3001 45.7999 18.1001 47.2999 18.1001H49.2999C50.3999 18.1001 51.2999 19.0001 51.2999 20.1001C51.2999 21.2001 50.3999 22.1001 49.2999 22.1001H47.2999ZM43.7999 12.1001H50.7999C50.0999 10.9001 48.7999 10.1001 47.2999 10.1001C45.7999 10.1001 44.4999 10.9001 43.7999 12.1001Z" fill="#575654"/>
<path d="M58.4999 14.1001C57.3999 14.1001 56.4999 13.2001 56.4999 12.1001C56.4999 11.0001 57.3999 10.1001 58.4999 10.1001H64.4999C65.5999 10.1001 66.4999 11.0001 66.4999 12.1001C66.4999 13.2001 65.5999 14.1001 64.4999 14.1001H58.4999Z" fill="#575654"/>
<path d="M68.5999 2.1001C68.5999 1.0001 69.4999 0.100098 70.5999 0.100098C71.6999 0.100098 72.5999 1.0001 72.5999 2.1001V7.2001C73.7999 6.5001 75.0999 6.1001 76.5999 6.1001C80.9999 6.1001 84.5999 9.7001 84.5999 14.1001C84.5999 18.5001 80.9999 22.1001 76.5999 22.1001C75.0999 22.1001 73.7999 21.7001 72.5999 21.0001C72.2999 21.8001 71.4999 22.3001 70.5999 22.3001C69.2999 22.3001 68.2999 21.3001 68.2999 20.0001C68.2999 19.1001 68.7999 18.3001 69.5999 17.9001C68.8999 16.7001 68.5999 15.4001 68.5999 14.0001V2.1001ZM76.5999 18.1001C78.7999 18.1001 80.5999 16.3001 80.5999 14.1001C80.5999 11.9001 78.7999 10.1001 76.5999 10.1001C74.3999 10.1001 72.5999 11.9001 72.5999 14.1001C72.5999 16.3001 74.3999 18.1001 76.5999 18.1001Z" fill="#575654"/>
<path d="M93.5999 6.1001C97.9999 6.1001 101.6 9.7001 101.6 14.1001C101.6 18.5001 97.9999 22.1001 93.5999 22.1001C89.1999 22.1001 85.5999 18.5001 85.5999 14.1001C85.5999 9.7001 89.1999 6.1001 93.5999 6.1001ZM93.5999 18.1001C95.7999 18.1001 97.5999 16.3001 97.5999 14.1001C97.5999 11.9001 95.7999 10.1001 93.5999 10.1001C91.3999 10.1001 89.5999 11.9001 89.5999 14.1001C89.5999 16.3001 91.3999 18.1001 93.5999 18.1001Z" fill="#575654"/>
<path d="M110.7 6.1001C115.1 6.1001 118.7 9.7001 118.7 14.1001C118.7 18.5001 115.1 22.1001 110.7 22.1001C106.3 22.1001 102.7 18.5001 102.7 14.1001C102.7 9.7001 106.3 6.1001 110.7 6.1001ZM110.7 18.1001C112.9 18.1001 114.7 16.3001 114.7 14.1001C114.7 11.9001 112.9 10.1001 110.7 10.1001C108.5 10.1001 106.7 11.9001 106.7 14.1001C106.7 16.3001 108.5 18.1001 110.7 18.1001Z" fill="#575654"/>
<path d="M131.3 14.1L135.9 18.7C136.3 19.1 136.5 19.6 136.5 20.1C136.5 21.2 135.6 22.1 134.5 22.1C134 22.1 133.5 21.9 133.1 21.5L128.5 16.9L123.9 21.5C123.5 21.9 123 22.1 122.5 22.1C121.4 22.1 120.5 21.2 120.5 20.1V2C120.5 0.9 121.4 0 122.5 0C123.6 0 124.5 0.9 124.5 2V15.3L133.1 6.69998C133.5 6.29998 134 6.09998 134.5 6.09998C135.6 6.09998 136.5 6.99998 136.5 8.09998C136.5 8.59998 136.3 9.1 135.9 9.5L131.3 14.1Z" fill="#575654"/>
<path d="M49.6 38.7998C50.2 38.7998 50.6 38.3998 50.6 37.7998C50.6 37.1998 50.2 36.7998 49.6 36.7998H45.6C42.8 36.7998 40.6 34.4998 40.6 31.7998C40.6 29.0998 42.9 26.7998 45.6 26.7998H51.6C52.7 26.7998 53.6 27.6998 53.6 28.7998C53.6 29.8998 52.7 30.7998 51.6 30.7998H45.6C45 30.7998 44.6 31.1998 44.6 31.7998C44.6 32.3998 45 32.7998 45.6 32.7998H49.6C52.4 32.7998 54.6 35.0998 54.6 37.7998C54.6 40.4998 52.3 42.7998 49.6 42.7998H42.6C41.5 42.7998 40.6 41.8998 40.6 40.7998C40.6 39.6998 41.5 38.7998 42.6 38.7998H49.6Z" fill="#C23448"/>
<path d="M58.4 26.7998V24.7998C58.4 23.6998 59.3 22.7998 60.4 22.7998C61.5 22.7998 62.4 23.6998 62.4 24.7998V26.7998H65.4C66.5 26.7998 67.4 27.6998 67.4 28.7998C67.4 29.8998 66.5 30.7998 65.4 30.7998H62.4V36.7998C62.4 37.8998 63.3 38.7998 64.4 38.7998H65.4C66.5 38.7998 67.4 39.6998 67.4 40.7998C67.4 41.8998 66.5 42.7998 65.4 42.7998H64.4C61.1 42.7998 58.4 40.0998 58.4 36.7998V30.7998H56.9C55.8 30.7998 54.9 29.8998 54.9 28.7998C54.9 27.6998 55.8 26.7998 56.9 26.7998H58.4Z" fill="#C23448"/>
<path d="M75.2 26.7998C79.6 26.7998 83.2 30.3998 83.2 34.7998C83.2 39.1998 79.6 42.7998 75.2 42.7998C70.8 42.7998 67.2 39.1998 67.2 34.7998C67.2 30.3998 70.7 26.7998 75.2 26.7998ZM75.2 38.7998C77.4 38.7998 79.2 36.9998 79.2 34.7998C79.2 32.5998 77.4 30.7998 75.2 30.7998C73 30.7998 71.2 32.5998 71.2 34.7998C71.2 36.9998 72.9 38.7998 75.2 38.7998Z" fill="#C23448"/>
<path d="M86.9 26.5C87.8 26.5 88.6 27 88.9 27.8C90.1 27.1 91.4 26.7 92.9 26.7C94 26.7 94.9 27.6 94.9 28.7C94.9 29.8 94 30.7 92.9 30.7C90.7 30.7 88.9 32.5 88.9 34.7V40.7C88.9 41.8 88 42.7 86.9 42.7C85.8 42.7 84.9 41.8 84.9 40.7V34.7C84.9 33.3 85.3 31.9 86 30.8C85.2 30.4 84.7 29.6 84.7 28.7C84.7 27.5 85.7 26.5 86.9 26.5Z" fill="#C23448"/>
<path d="M102.7 42.7998C98.3 42.7998 94.7 39.1998 94.7 34.7998C94.7 30.3998 98.3 26.7998 102.7 26.7998C107.1 26.7998 110.7 30.3998 110.7 34.7998C110.7 35.8998 109.8 36.7998 108.7 36.7998H99.2C99.9 37.9998 101.2 38.7998 102.7 38.7998H104.7C105.8 38.7998 106.7 39.6998 106.7 40.7998C106.7 41.8998 105.8 42.7998 104.7 42.7998H102.7ZM99.3 32.7998H106.3C105.6 31.5998 104.3 30.7998 102.8 30.7998C101.2 30.7998 99.9 31.5998 99.3 32.7998Z" fill="#C23448"/>
<path d="M12.7 43.2L11.6 42C11.4 41.8 11.1 41.7 10.8 41.7C10.5 41.7 10.2 41.8 10 42L8.89999 43.2V39.5H12.7V43.2Z" fill="#C23448"/>
<path d="M24.2 41.6997H14.9V38.3997C14.9 37.7997 14.4 37.2997 13.8 37.2997H7.80002C7.20002 37.2997 6.70001 37.7997 6.70001 38.3997V41.6997H5.70001C3.80001 41.6997 2.20001 40.0997 2.20001 38.1997C2.20001 36.2997 3.80001 34.6997 5.70001 34.6997H24.2C23.5 35.6997 23 36.8997 23 38.1997C23 39.4997 23.5 40.6997 24.2 41.6997Z" fill="#F9F9FA"/>
<path d="M5.70001 32.6001C4.40001 32.6001 3.20001 33.0001 2.20001 33.8001V9.6001C2.20001 7.7001 3.80001 6.1001 5.70001 6.1001H27.6V32.5001H5.70001V32.6001Z" fill="#BEDCE8"/>
<path d="M28.7 34.6999C29.3 34.6999 29.8 34.1999 29.8 33.5999V4.99991C29.8 4.39991 29.3 3.8999 28.7 3.8999H5.7C2.6 3.8999 0 6.39988 0 9.59988V38.1999C0 41.2999 2.5 43.8999 5.7 43.8999H6.7V45.8999C6.7 46.2999 6.99999 46.6999 7.39999 46.8999C7.79999 47.0999 8.29999 46.9999 8.59999 46.6999L10.8 44.3999L13 46.6999C13.2 46.8999 13.5 46.9999 13.8 46.9999C13.9 46.9999 14.1 46.9999 14.2 46.8999C14.6 46.6999 14.9 46.2999 14.9 45.8999V43.8999H28.7C29.3 43.8999 29.8 43.3999 29.8 42.7999C29.8 42.1999 29.3 41.6999 28.7 41.6999C26.8 41.6999 25.2 40.0999 25.2 38.1999C25.2 36.2999 26.8 34.6999 28.7 34.6999ZM12.7 43.1999L11.6 41.9999C11.4 41.7999 11.1 41.6999 10.8 41.6999C10.5 41.6999 10.2 41.7999 10 41.9999L8.89999 43.1999V39.4999H12.7V43.1999ZM24.2 41.6999H14.9V38.3999C14.9 37.7999 14.4 37.2999 13.8 37.2999H7.8C7.2 37.2999 6.7 37.7999 6.7 38.3999V41.6999H5.7C3.8 41.6999 2.2 40.0999 2.2 38.1999C2.2 36.2999 3.8 34.6999 5.7 34.6999H24.2C23.5 35.6999 23 36.8999 23 38.1999C23 39.4999 23.5 40.6999 24.2 41.6999ZM5.7 32.5999C4.4 32.5999 3.2 32.9999 2.2 33.7999V9.59988C2.2 7.69988 3.8 6.09988 5.7 6.09988H27.6V32.4999H5.7V32.5999Z" fill="#575654"/>
<path d="M14.9 29.2998C14.3 29.2998 13.8 29.7998 13.8 30.3998C13.8 30.9998 14.3 31.4998 14.9 31.4998C15.5 31.4998 16 30.9998 16 30.3998C16 29.7998 15.5 29.2998 14.9 29.2998Z" fill="#575654"/>
<path d="M21.2 13H8.70001V26H21.2V13Z" fill="#F9F9FA"/>
<path d="M22.3 28.1998H7.59999C6.99999 28.1998 6.5 27.6998 6.5 27.0998V11.8998C6.5 11.2998 6.99999 10.7998 7.59999 10.7998H22.3C22.9 10.7998 23.4 11.2998 23.4 11.8998V27.0998C23.3 27.6998 22.9 28.1998 22.3 28.1998ZM8.7 25.9998H21.2V12.9998H8.7V25.9998Z" fill="#575654"/>
<path d="M18 7.3999H15.1C14.5 7.3999 14 7.89991 14 8.49991C14 9.09991 14.5 9.59988 15.1 9.59988H18C18.6 9.59988 19.1 9.09991 19.1 8.49991C19.1 7.89991 18.6 7.3999 18 7.3999Z" fill="#575654"/>
<path d="M11.8 7.3999C11.2 7.3999 10.7 7.89991 10.7 8.49991C10.7 9.09991 11.2 9.59988 11.8 9.59988C12.4 9.59988 12.9 9.09991 12.9 8.49991C12.9 7.89991 12.4 7.3999 11.8 7.3999Z" fill="#575654"/>
<path d="M12.8 14.6997H11.7C11.1 14.6997 10.6 15.1997 10.6 15.7997C10.6 16.3997 11.1 16.8997 11.7 16.8997H12.8C13.4 16.8997 13.9 16.3997 13.9 15.7997C13.9 15.1997 13.4 14.6997 12.8 14.6997Z" fill="#575654"/>
<path d="M18.1 14.6997H17C16.4 14.6997 15.9 15.1997 15.9 15.7997C15.9 16.3997 16.4 16.8997 17 16.8997H18.1C18.7 16.8997 19.2 16.3997 19.2 15.7997C19.2 15.1997 18.7 14.6997 18.1 14.6997Z" fill="#575654"/>
<path d="M12.8 17.7998H11.7C11.1 17.7998 10.6 18.2998 10.6 18.8998C10.6 19.4998 11.1 19.9998 11.7 19.9998H12.8C13.4 19.9998 13.9 19.4998 13.9 18.8998C13.9 18.2998 13.4 17.7998 12.8 17.7998Z" fill="#575654"/>
<path d="M18.1 17.7998H17C16.4 17.7998 15.9 18.2998 15.9 18.8998C15.9 19.4998 16.4 19.9998 17 19.9998H18.1C18.7 19.9998 19.2 19.4998 19.2 18.8998C19.2 18.2998 18.7 17.7998 18.1 17.7998Z" fill="#575654"/>
<path d="M12.8 20.9995H11.7C11.1 20.9995 10.6 21.4995 10.6 22.0995C10.6 22.6995 11.1 23.1995 11.7 23.1995H12.8C13.4 23.1995 13.9 22.6995 13.9 22.0995C13.9 21.4995 13.4 20.9995 12.8 20.9995Z" fill="#575654"/>
<path d="M18.1 20.9995H17C16.4 20.9995 15.9 21.4995 15.9 22.0995C15.9 22.6995 16.4 23.1995 17 23.1995H18.1C18.7 23.1995 19.2 22.6995 19.2 22.0995C19.2 21.4995 18.7 20.9995 18.1 20.9995Z" fill="#575654"/>
</svg>
