<?xml version="1.0" encoding="utf-8"?>
<!-- Generator: Adobe Illustrator 23.1.0, SVG Export Plug-In . SVG Version: 6.00 Build 0)  -->
<svg version="1.1" id="Camada_1" xmlns="http://www.w3.org/2000/svg" xmlns:xlink="http://www.w3.org/1999/xlink" x="0px" y="0px"
	 viewBox="0 0 137 47" style="enable-background:new 0 0 137 47;" xml:space="preserve">
<style type="text/css">
	.st0{fill:#FFFFFF;}
	.st1{fill:#C23448;}
	.st2{fill:#F9F9FA;}
	.st3{fill:#BEDCE8;}
	.st4{fill:#575654;}
</style>
<g>
	<g>
		<path class="st0" d="M48.9,21.9c-4.1,0-7.5-3.4-7.5-7.5s3.4-7.5,7.5-7.5s7.5,3.4,7.5,7.5c0,1-0.8,1.9-1.9,1.9h-8.9
			c0.6,1.1,1.8,1.9,3.2,1.9h1.9c1,0,1.9,0.8,1.9,1.9c0,1-0.8,1.9-1.9,1.9H48.9z M45.7,12.5h6.5c-0.6-1.1-1.9-1.9-3.2-1.9
			C47.5,10.6,46.3,11.4,45.7,12.5z"/>
		<path class="st0" d="M59.4,14.4c-1,0-1.9-0.8-1.9-1.9s0.8-1.9,1.9-1.9H65c1,0,1.9,0.8,1.9,1.9s-0.8,1.9-1.9,1.9H59.4z"/>
		<path class="st0" d="M68.8,3.2c0-1,0.8-1.9,1.9-1.9c1,0,1.9,0.8,1.9,1.9v4.8c1.1-0.6,2.4-1,3.7-1c4.1,0,7.5,3.4,7.5,7.5
			s-3.4,7.5-7.5,7.5c-1.4,0-2.6-0.4-3.7-1c-0.3,0.7-1.1,1.2-1.9,1.2c-1.2,0-2.1-0.9-2.1-2.1c0-0.8,0.5-1.6,1.2-1.9
			c-0.6-1.1-1-2.3-1-3.7V3.2z M76.3,18.1c2.1,0,3.7-1.7,3.7-3.7s-1.7-3.7-3.7-3.7c-2.1,0-3.7,1.7-3.7,3.7S74.2,18.1,76.3,18.1z"/>
		<path class="st0" d="M92.2,6.9c4.1,0,7.5,3.4,7.5,7.5s-3.4,7.5-7.5,7.5s-7.5-3.4-7.5-7.5S88.1,6.9,92.2,6.9z M92.2,18.1
			c2.1,0,3.7-1.7,3.7-3.7s-1.7-3.7-3.7-3.7c-2.1,0-3.7,1.7-3.7,3.7S90.1,18.1,92.2,18.1z"/>
		<path class="st0" d="M108.1,6.9c4.1,0,7.5,3.4,7.5,7.5s-3.4,7.5-7.5,7.5s-7.5-3.4-7.5-7.5S104,6.9,108.1,6.9z M108.1,18.1
			c2.1,0,3.7-1.7,3.7-3.7s-1.7-3.7-3.7-3.7s-3.7,1.7-3.7,3.7S106,18.1,108.1,18.1z"/>
		<path class="st0" d="M127.3,14.4l4.3,4.3c0.4,0.4,0.6,0.8,0.6,1.3c0,1-0.8,1.9-1.9,1.9c-0.5,0-1-0.2-1.3-0.6l-4.3-4.3l-4.3,4.3
			c-0.4,0.4-0.8,0.6-1.3,0.6c-1,0-1.9-0.8-1.9-1.9V3.2c0-1,0.8-1.9,1.9-1.9c1,0,1.9,0.8,1.9,1.9v12.3l8-8c0.4-0.4,0.8-0.6,1.3-0.6
			c1,0,1.9,0.8,1.9,1.9c0,0.5-0.2,1-0.6,1.3L127.3,14.4z"/>
	</g>
	<g>
		<path class="st1" d="M51.1,37.4c0.5,0,0.9-0.4,0.9-0.9c0-0.5-0.4-0.9-0.9-0.9h-3.7c-2.6,0-4.7-2.1-4.7-4.7s2.1-4.7,4.7-4.7h5.6
			c1,0,1.9,0.8,1.9,1.9c0,1-0.8,1.9-1.9,1.9h-5.6c-0.5,0-0.9,0.4-0.9,0.9c0,0.5,0.4,0.9,0.9,0.9h3.7c2.6,0,4.7,2.1,4.7,4.7
			s-2.1,4.7-4.7,4.7h-6.6c-1,0-1.9-0.8-1.9-1.9s0.8-1.9,1.9-1.9H51.1z"/>
		<path class="st1" d="M59.3,26.2v-1.9c0-1,0.8-1.9,1.9-1.9c1,0,1.9,0.8,1.9,1.9v1.9h2.8c1,0,1.9,0.8,1.9,1.9c0,1-0.8,1.9-1.9,1.9
			H63v5.6c0,1,0.8,1.9,1.9,1.9h0.9c1,0,1.9,0.8,1.9,1.9s-0.8,1.9-1.9,1.9h-0.9c-3.1,0-5.6-2.5-5.6-5.6V30h-1.4c-1,0-1.9-0.8-1.9-1.9
			c0-1,0.8-1.9,1.9-1.9H59.3z"/>
		<path class="st1" d="M74.9,26.2c4.1,0,7.5,3.4,7.5,7.5s-3.4,7.5-7.5,7.5s-7.5-3.4-7.5-7.5S70.8,26.2,74.9,26.2z M74.9,37.4
			c2.1,0,3.7-1.7,3.7-3.7S77,30,74.9,30s-3.7,1.7-3.7,3.7S72.9,37.4,74.9,37.4z"/>
		<path class="st1" d="M85.9,26c0.8,0,1.6,0.5,1.9,1.2c1.1-0.6,2.4-1,3.7-1c1,0,1.9,0.8,1.9,1.9c0,1-0.8,1.9-1.9,1.9
			c-2.1,0-3.7,1.7-3.7,3.7v5.6c0,1-0.8,1.9-1.9,1.9c-1,0-1.9-0.8-1.9-1.9v-5.6c0-1.3,0.4-2.6,1-3.7c-0.7-0.4-1.2-1.1-1.2-1.9
			C83.8,26.9,84.8,26,85.9,26z"/>
		<path class="st1" d="M100.7,41.2c-4.1,0-7.5-3.4-7.5-7.5s3.4-7.5,7.5-7.5c4.1,0,7.5,3.4,7.5,7.5c0,1-0.8,1.9-1.9,1.9h-8.9
			c0.6,1.1,1.8,1.9,3.2,1.9h1.9c1,0,1.9,0.8,1.9,1.9s-0.8,1.9-1.9,1.9H100.7z M97.4,31.8h6.5c-0.6-1.1-1.9-1.9-3.2-1.9
			C99.3,30,98.1,30.7,97.4,31.8z"/>
	</g>
	<g id="logo_symbol_6_">
		<path class="st1" d="M16.7,41.5l-1.1-1.1c-0.2-0.2-0.5-0.3-0.7-0.3c-0.3,0-0.5,0.1-0.7,0.3l-1.1,1.1v-3.5h3.6V41.5z"/>
		<path class="st2" d="M27.4,40.1h-8.7V37c0-0.6-0.5-1-1-1h-5.6c-0.6,0-1,0.5-1,1v3.1h-0.9c-1.8,0-3.2-1.5-3.2-3.2
			c0-1.8,1.5-3.2,3.2-3.2h17.3c-0.7,0.9-1.1,2-1.1,3.2C26.3,38.1,26.7,39.2,27.4,40.1z"/>
		<path class="st3" d="M10.1,31.6c-1.2,0-2.3,0.4-3.2,1.1V10.2c0-1.8,1.5-3.2,3.2-3.2h20.4v24.7H10.1z"/>
		<path class="st4" d="M31.6,33.7c0.6,0,1-0.5,1-1V5.9c0-0.6-0.5-1-1-1H10.1c-2.9,0-5.3,2.4-5.3,5.3v26.7c0,2.9,2.4,5.3,5.3,5.3H11
			V44c0,0.4,0.3,0.8,0.6,0.9c0.4,0.2,0.8,0.1,1.1-0.2l2.1-2.1l2.1,2.1c0.2,0.2,0.5,0.3,0.7,0.3c0.1,0,0.3,0,0.4-0.1
			c0.4-0.2,0.6-0.5,0.6-0.9v-1.9h12.9c0.6,0,1-0.5,1-1c0-0.6-0.5-1-1-1c-1.8,0-3.2-1.5-3.2-3.2C28.3,35.1,29.8,33.7,31.6,33.7z
			 M16.7,41.5l-1.1-1.1c-0.2-0.2-0.5-0.3-0.7-0.3c-0.3,0-0.5,0.1-0.7,0.3l-1.1,1.1v-3.5h3.6V41.5z M27.4,40.1h-8.7V37
			c0-0.6-0.5-1-1-1h-5.6c-0.6,0-1,0.5-1,1v3.1h-0.9c-1.8,0-3.2-1.5-3.2-3.2c0-1.8,1.5-3.2,3.2-3.2h17.3c-0.7,0.9-1.1,2-1.1,3.2
			C26.3,38.1,26.7,39.2,27.4,40.1z M10.1,31.6c-1.2,0-2.3,0.4-3.2,1.1V10.2c0-1.8,1.5-3.2,3.2-3.2h20.4v24.7H10.1z"/>
		<path class="st4" d="M18.7,28.6L18.7,28.6c-0.6,0-1.1,0.5-1.1,1c0,0.6,0.5,1,1,1h0c0.6,0,1-0.5,1-1C19.7,29.1,19.3,28.6,18.7,28.6
			z"/>
		<rect x="12.9" y="13.3" class="st2" width="11.7" height="12.1"/>
		<path class="st4" d="M25.6,27.5H11.8c-0.6,0-1-0.5-1-1V12.3c0-0.6,0.5-1,1-1h13.7c0.6,0,1,0.5,1,1v14.2
			C26.6,27,26.1,27.5,25.6,27.5z M12.9,25.5h11.7V13.3H12.9V25.5z"/>
		<path class="st4" d="M21.6,8.1h-2.8c-0.6,0-1,0.5-1,1c0,0.6,0.5,1,1,1h2.8c0.6,0,1-0.5,1-1C22.6,8.6,22.1,8.1,21.6,8.1z"/>
		<path class="st4" d="M15.8,8.1L15.8,8.1c-0.6,0-1,0.5-1,1c0,0.6,0.5,1,1,1l0,0c0.6,0,1-0.5,1-1C16.8,8.6,16.4,8.1,15.8,8.1z"/>
		<g>
			<path class="st4" d="M16.8,14.9h-1c-0.6,0-1,0.5-1,1s0.5,1,1,1h1c0.6,0,1-0.5,1-1C17.8,15.4,17.3,14.9,16.8,14.9z"/>
			<path class="st4" d="M21.7,14.9h-1c-0.6,0-1,0.5-1,1s0.5,1,1,1h1c0.6,0,1-0.5,1-1C22.7,15.4,22.2,14.9,21.7,14.9z"/>
			<path class="st4" d="M16.8,17.9h-1c-0.6,0-1,0.5-1,1c0,0.6,0.5,1,1,1h1c0.6,0,1-0.5,1-1C17.8,18.3,17.3,17.9,16.8,17.9z"/>
			<path class="st4" d="M21.7,17.9h-1c-0.6,0-1,0.5-1,1c0,0.6,0.5,1,1,1h1c0.6,0,1-0.5,1-1C22.7,18.3,22.2,17.9,21.7,17.9z"/>
			<path class="st4" d="M16.8,20.9h-1c-0.6,0-1,0.5-1,1c0,0.6,0.5,1,1,1h1c0.6,0,1-0.5,1-1C17.8,21.3,17.3,20.9,16.8,20.9z"/>
			<path class="st4" d="M21.7,20.9h-1c-0.6,0-1,0.5-1,1c0,0.6,0.5,1,1,1h1c0.6,0,1-0.5,1-1C22.7,21.3,22.2,20.9,21.7,20.9z"/>
		</g>
	</g>
</g>
</svg>
